<svg xmlns="http://www.w3.org/2000/svg" xmlns:xlink="http://www.w3.org/1999/xlink" width="500" zoomAndPan="magnify" viewBox="0 0 375 374.999991" height="500" preserveAspectRatio="xMidYMid meet" version="1.0"><defs><g/><clipPath id="5649809f7f"><path d="M 51.566406 53.910156 L 164 53.910156 L 164 321.234375 L 51.566406 321.234375 Z M 51.566406 53.910156 " clip-rule="nonzero"/></clipPath><clipPath id="0f925619c9"><path d="M 96.144531 53.910156 L 161.308594 53.910156 C 162.058594 53.910156 162.773438 54.238281 163.261719 54.808594 C 163.746094 55.378906 163.960938 56.132812 163.847656 56.875 L 123.191406 318.109375 C 122.925781 319.816406 121.453125 321.074219 119.726562 321.074219 L 54.566406 321.074219 C 53.816406 321.074219 53.101562 320.746094 52.613281 320.175781 C 52.125 319.605469 51.910156 318.851562 52.027344 318.109375 L 92.683594 56.875 C 92.949219 55.167969 94.417969 53.910156 96.144531 53.910156 Z M 96.144531 53.910156 " clip-rule="nonzero"/></clipPath><clipPath id="d6e307c327"><path d="M 0.839844 0.910156 L 113 0.910156 L 113 268.121094 L 0.839844 268.121094 Z M 0.839844 0.910156 " clip-rule="nonzero"/></clipPath><clipPath id="e778f6c3a5"><path d="M 45.144531 0.910156 L 110.308594 0.910156 C 111.058594 0.910156 111.773438 1.238281 112.261719 1.808594 C 112.746094 2.378906 112.960938 3.132812 112.847656 3.875 L 72.191406 265.109375 C 71.925781 266.816406 70.453125 268.074219 68.726562 268.074219 L 3.566406 268.074219 C 2.816406 268.074219 2.101562 267.746094 1.613281 267.175781 C 1.125 266.605469 0.910156 265.851562 1.027344 265.109375 L 41.683594 3.875 C 41.949219 2.167969 43.417969 0.910156 45.144531 0.910156 Z M 45.144531 0.910156 " clip-rule="nonzero"/></clipPath><clipPath id="dfbd550b07"><rect x="0" width="113" y="0" height="269"/></clipPath><clipPath id="45ba8e0412"><path d="M 51.566406 53.917969 L 164 53.917969 L 164 320.910156 L 51.566406 320.910156 Z M 51.566406 53.917969 " clip-rule="nonzero"/></clipPath><clipPath id="3ce541bc70"><path d="M 96.140625 53.917969 L 161.300781 53.917969 C 162.050781 53.917969 162.761719 54.246094 163.25 54.816406 C 163.738281 55.382812 163.953125 56.140625 163.839844 56.882812 L 123.183594 318.09375 C 122.917969 319.800781 121.449219 321.058594 119.722656 321.058594 L 54.566406 321.058594 C 53.8125 321.058594 53.101562 320.730469 52.613281 320.160156 C 52.125 319.589844 51.910156 318.835938 52.027344 318.09375 L 92.679688 56.882812 C 92.945312 55.175781 94.414062 53.917969 96.140625 53.917969 Z M 96.140625 53.917969 " clip-rule="nonzero"/></clipPath><clipPath id="d8a61176ed"><path d="M 136 53.910156 L 248.609375 53.910156 L 248.609375 321.234375 L 136 321.234375 Z M 136 53.910156 " clip-rule="nonzero"/></clipPath><clipPath id="05e0bae525"><path d="M 180.445312 53.910156 L 245.609375 53.910156 C 246.359375 53.910156 247.074219 54.238281 247.5625 54.808594 C 248.050781 55.378906 248.265625 56.132812 248.148438 56.875 L 207.492188 318.109375 C 207.226562 319.816406 205.757812 321.074219 204.03125 321.074219 L 138.867188 321.074219 C 138.117188 321.074219 137.402344 320.746094 136.914062 320.175781 C 136.425781 319.605469 136.210938 318.851562 136.328125 318.109375 L 176.984375 56.875 C 177.25 55.167969 178.71875 53.910156 180.445312 53.910156 Z M 180.445312 53.910156 " clip-rule="nonzero"/></clipPath><clipPath id="534613afea"><path d="M 0.078125 0.910156 L 112.398438 0.910156 L 112.398438 268.121094 L 0.078125 268.121094 Z M 0.078125 0.910156 " clip-rule="nonzero"/></clipPath><clipPath id="edfb3c2c10"><path d="M 44.445312 0.910156 L 109.609375 0.910156 C 110.359375 0.910156 111.074219 1.238281 111.5625 1.808594 C 112.050781 2.378906 112.265625 3.132812 112.148438 3.875 L 71.492188 265.109375 C 71.226562 266.816406 69.757812 268.074219 68.03125 268.074219 L 2.867188 268.074219 C 2.117188 268.074219 1.402344 267.746094 0.914062 267.175781 C 0.425781 266.605469 0.210938 265.851562 0.328125 265.109375 L 40.984375 3.875 C 41.25 2.167969 42.71875 0.910156 44.445312 0.910156 Z M 44.445312 0.910156 " clip-rule="nonzero"/></clipPath><clipPath id="7ae7c65ca1"><rect x="0" width="113" y="0" height="269"/></clipPath><clipPath id="1764d2ef7d"><path d="M 136 53.917969 L 248.367188 53.917969 L 248.367188 320.910156 L 136 320.910156 Z M 136 53.917969 " clip-rule="nonzero"/></clipPath><clipPath id="cc083fffe3"><path d="M 180.441406 53.917969 L 245.601562 53.917969 C 246.351562 53.917969 247.0625 54.246094 247.550781 54.816406 C 248.039062 55.382812 248.253906 56.140625 248.140625 56.882812 L 207.484375 318.09375 C 207.21875 319.800781 205.75 321.058594 204.023438 321.058594 L 138.867188 321.058594 C 138.117188 321.058594 137.402344 320.730469 136.914062 320.160156 C 136.425781 319.589844 136.210938 318.835938 136.328125 318.09375 L 176.980469 56.882812 C 177.246094 55.175781 178.714844 53.917969 180.441406 53.917969 Z M 180.441406 53.917969 " clip-rule="nonzero"/></clipPath><clipPath id="a6f69cd869"><path d="M 220.167969 53.910156 L 332.910156 53.910156 L 332.910156 321.234375 L 220.167969 321.234375 Z M 220.167969 53.910156 " clip-rule="nonzero"/></clipPath><clipPath id="cf02e7c662"><path d="M 264.75 53.910156 L 329.910156 53.910156 C 330.660156 53.910156 331.375 54.238281 331.863281 54.808594 C 332.351562 55.378906 332.566406 56.132812 332.449219 56.875 L 291.792969 318.109375 C 291.527344 319.816406 290.058594 321.074219 288.332031 321.074219 L 223.167969 321.074219 C 222.417969 321.074219 221.703125 320.746094 221.214844 320.175781 C 220.730469 319.605469 220.515625 318.851562 220.628906 318.109375 L 261.285156 56.875 C 261.550781 55.167969 263.023438 53.910156 264.75 53.910156 Z M 264.75 53.910156 " clip-rule="nonzero"/></clipPath><clipPath id="b10b77b88c"><path d="M 0.320312 0.910156 L 112.640625 0.910156 L 112.640625 268.121094 L 0.320312 268.121094 Z M 0.320312 0.910156 " clip-rule="nonzero"/></clipPath><clipPath id="60fd6164e8"><path d="M 44.75 0.910156 L 109.910156 0.910156 C 110.660156 0.910156 111.375 1.238281 111.863281 1.808594 C 112.351562 2.378906 112.566406 3.132812 112.449219 3.875 L 71.792969 265.109375 C 71.527344 266.816406 70.058594 268.074219 68.332031 268.074219 L 3.167969 268.074219 C 2.417969 268.074219 1.703125 267.746094 1.214844 267.175781 C 0.730469 266.605469 0.515625 265.851562 0.628906 265.109375 L 41.285156 3.875 C 41.550781 2.167969 43.023438 0.910156 44.75 0.910156 Z M 44.75 0.910156 " clip-rule="nonzero"/></clipPath><clipPath id="66f16f1347"><rect x="0" width="113" y="0" height="269"/></clipPath><clipPath id="7c01e43fb5"><path d="M 220.167969 53.917969 L 332.667969 53.917969 L 332.667969 320.910156 L 220.167969 320.910156 Z M 220.167969 53.917969 " clip-rule="nonzero"/></clipPath><clipPath id="78eb3d9a2f"><path d="M 264.746094 53.917969 L 329.902344 53.917969 C 330.652344 53.917969 331.367188 54.246094 331.855469 54.816406 C 332.34375 55.382812 332.554688 56.140625 332.441406 56.882812 L 291.785156 318.09375 C 291.519531 319.800781 290.050781 321.058594 288.324219 321.058594 L 223.167969 321.058594 C 222.417969 321.058594 221.703125 320.730469 221.214844 320.160156 C 220.730469 319.589844 220.515625 318.835938 220.628906 318.09375 L 261.285156 56.882812 C 261.550781 55.175781 263.019531 53.917969 264.746094 53.917969 Z M 264.746094 53.917969 " clip-rule="nonzero"/></clipPath></defs><g clip-path="url(#5649809f7f)"><g clip-path="url(#0f925619c9)"><g transform="matrix(1, 0, 0, 1, 51, 53)"><g clip-path="url(#dfbd550b07)"><g clip-path="url(#d6e307c327)"><g clip-path="url(#e778f6c3a5)"><path fill="#004aad" d="M 0.566406 0.910156 L 113.308594 0.910156 L 113.308594 268.234375 L 0.566406 268.234375 Z M 0.566406 0.910156 " fill-opacity="1" fill-rule="nonzero"/></g></g></g></g></g></g><g clip-path="url(#45ba8e0412)"><g clip-path="url(#3ce541bc70)"><path stroke-linecap="butt" transform="matrix(0.75, 0, 0, 0.75, 51.564995, 53.916904)" fill="none" stroke-linejoin="miter" d="M 59.434178 0.00142012 L 146.314392 0.00142012 C 147.314392 0.00142012 148.262308 0.43892 148.91335 1.199337 C 149.564392 1.954545 149.85085 2.964962 149.699809 3.954545 L 95.491472 352.235818 C 95.137305 354.51186 93.178972 356.188944 90.876888 356.188944 L 4.001882 356.188944 C 2.996674 356.188944 2.048757 355.751443 1.397715 354.991027 C 0.746674 354.23061 0.460215 353.225402 0.616465 352.235818 L 54.819594 3.954545 C 55.173761 1.678504 57.132094 0.00142012 59.434178 0.00142012 Z M 59.434178 0.00142012 " stroke="#000000" stroke-width="26" stroke-opacity="1" stroke-miterlimit="4"/></g></g><g clip-path="url(#d8a61176ed)"><g clip-path="url(#05e0bae525)"><g transform="matrix(1, 0, 0, 1, 136, 53)"><g clip-path="url(#7ae7c65ca1)"><g clip-path="url(#534613afea)"><g clip-path="url(#edfb3c2c10)"><path fill="#004aad" d="M -0.132812 0.910156 L 112.609375 0.910156 L 112.609375 268.234375 L -0.132812 268.234375 Z M -0.132812 0.910156 " fill-opacity="1" fill-rule="nonzero"/></g></g></g></g></g></g><g clip-path="url(#1764d2ef7d)"><g clip-path="url(#cc083fffe3)"><path stroke-linecap="butt" transform="matrix(0.75, 0, 0, 0.75, 135.866554, 53.916904)" fill="none" stroke-linejoin="miter" d="M 59.43314 0.00142012 L 146.313354 0.00142012 C 147.313354 0.00142012 148.261271 0.43892 148.912313 1.199337 C 149.563355 1.954545 149.849813 2.964962 149.698771 3.954545 L 95.490434 352.235818 C 95.136268 354.51186 93.177934 356.188944 90.875851 356.188944 L 4.000845 356.188944 C 3.000845 356.188944 2.04772 355.751443 1.396678 354.991027 C 0.745636 354.23061 0.459178 353.225402 0.615428 352.235818 L 54.818557 3.954545 C 55.172723 1.678504 57.131057 0.00142012 59.43314 0.00142012 Z M 59.43314 0.00142012 " stroke="#000000" stroke-width="26" stroke-opacity="1" stroke-miterlimit="4"/></g></g><g clip-path="url(#a6f69cd869)"><g clip-path="url(#cf02e7c662)"><g transform="matrix(1, 0, 0, 1, 220, 53)"><g clip-path="url(#66f16f1347)"><g clip-path="url(#b10b77b88c)"><g clip-path="url(#60fd6164e8)"><path fill="#004aad" d="M 0.167969 0.910156 L 112.910156 0.910156 L 112.910156 268.234375 L 0.167969 268.234375 Z M 0.167969 0.910156 " fill-opacity="1" fill-rule="nonzero"/></g></g></g></g></g></g><g clip-path="url(#7c01e43fb5)"><g clip-path="url(#78eb3d9a2f)"><path stroke-linecap="butt" transform="matrix(0.75, 0, 0, 0.75, 220.168116, 53.916904)" fill="none" stroke-linejoin="miter" d="M 59.437308 0.00142012 L 146.312314 0.00142012 C 147.312314 0.00142012 148.265439 0.43892 148.916481 1.199337 C 149.567522 1.954545 149.848772 2.964962 149.697731 3.954545 L 95.489394 352.235818 C 95.135227 354.51186 93.176894 356.188944 90.87481 356.188944 L 3.999804 356.188944 C 2.999804 356.188944 2.046679 355.751443 1.395638 354.991027 C 0.749804 354.23061 0.463346 353.225402 0.614388 352.235818 L 54.822724 3.954545 C 55.176891 1.678504 57.135225 0.00142012 59.437308 0.00142012 Z M 59.437308 0.00142012 " stroke="#000000" stroke-width="26" stroke-opacity="1" stroke-miterlimit="4"/></g></g><g fill="#000000" fill-opacity="1"><g transform="translate(73.699218, 228.359078)"><g><path d="M 48.824219 -92.214844 C 57.6875 -92.214844 65.1875 -90.953125 71.324219 -88.429688 C 78.472656 -85.488281 84.148438 -80.894531 88.363281 -74.644531 C 90.90625 -70.703125 92.828125 -66.4375 94.121094 -61.847656 C 95.382812 -57.375 96.015625 -52.398438 96.015625 -46.921875 C 96.015625 -42.5 95.613281 -38.085938 94.8125 -33.679688 C 94.027344 -29.355469 92.914062 -25.1875 91.480469 -21.175781 C 90.015625 -17.085938 88.234375 -13.230469 86.144531 -9.605469 C 83.9375 -5.785156 81.449219 -2.378906 78.675781 0.613281 C 71.664062 8.328125 62.78125 13.226562 52.023438 15.308594 L 49.0625 0 L 60.085938 -11.023438 C 60.90625 -10.203125 61.878906 -9.519531 62.996094 -8.980469 C 64.59375 -8.203125 66.222656 -7.632812 67.886719 -7.261719 L 101.332031 0.171875 L 64.253906 27.515625 L 60.679688 30.121094 C 59.636719 30.878906 58.742188 31.542969 58 32.117188 C 56.644531 33.164062 55.410156 34.023438 54.292969 34.691406 L 45.210938 40.140625 L 37.113281 35.078125 C 33.53125 32.839844 30.375 30.324219 27.644531 27.539062 C 25.121094 24.960938 22.9375 22.308594 21.101562 19.578125 C 19.339844 16.964844 17.871094 14.398438 16.699219 11.878906 C 15.652344 9.640625 14.808594 7.605469 14.164062 5.785156 L 28.867188 0.59375 L 27.550781 16.128906 C 21.03125 15.578125 15.40625 14.195312 10.679688 11.984375 C 5.375 9.507812 0.96875 6.019531 -2.546875 1.519531 C -5.515625 -2.257812 -7.777344 -6.820312 -9.328125 -12.160156 C -10.734375 -16.988281 -11.433594 -22.714844 -11.433594 -29.339844 C -11.433594 -40.371094 -9.410156 -50.367188 -5.359375 -59.335938 C -1.054688 -68.875 5.160156 -76.480469 13.285156 -82.15625 C 18.207031 -85.625 23.671875 -88.191406 29.683594 -89.863281 C 35.324219 -91.429688 41.703125 -92.214844 48.824219 -92.214844 Z M 48.824219 -61.027344 C 44.539062 -61.027344 40.941406 -60.625 38.027344 -59.816406 C 35.484375 -59.109375 33.191406 -58.035156 31.144531 -56.59375 C 27.707031 -54.191406 25.011719 -50.828125 23.0625 -46.507812 C 20.855469 -41.617188 19.75 -35.894531 19.75 -29.339844 C 19.75 -25.675781 20.039062 -22.847656 20.613281 -20.863281 C 21.042969 -19.394531 21.511719 -18.332031 22.027344 -17.675781 C 22.476562 -17.105469 23.09375 -16.632812 23.886719 -16.261719 C 25.257812 -15.621094 27.355469 -15.183594 30.183594 -14.941406 L 40.21875 -14.09375 L 43.570312 -4.59375 C 43.875 -3.726562 44.339844 -2.628906 44.957031 -1.308594 C 45.445312 -0.261719 46.113281 0.894531 46.964844 2.160156 C 47.742188 3.3125 48.730469 4.5 49.925781 5.722656 C 50.921875 6.738281 52.160156 7.707031 53.640625 8.636719 L 45.378906 21.859375 L 37.355469 8.488281 L 38.246094 7.953125 C 38.316406 7.910156 38.546875 7.742188 38.933594 7.441406 C 39.933594 6.667969 41.058594 5.828125 42.3125 4.921875 L 45.746094 2.417969 L 55.25 -4.589844 L 64.503906 7.960938 L 61.121094 23.179688 C 57.082031 22.28125 53.167969 20.914062 49.382812 19.074219 C 45.113281 17.003906 41.332031 14.320312 38.035156 11.023438 L 17.28125 -9.730469 L 46.097656 -15.308594 C 50.070312 -16.078125 53.304688 -17.832031 55.796875 -20.570312 C 56.984375 -21.855469 58.097656 -23.398438 59.140625 -25.199219 C 60.292969 -27.199219 61.289062 -29.363281 62.121094 -31.6875 C 62.980469 -34.089844 63.652344 -36.613281 64.132812 -39.257812 C 64.597656 -41.820312 64.832031 -44.375 64.832031 -46.921875 C 64.832031 -49.523438 64.589844 -51.675781 64.109375 -53.382812 C 63.660156 -54.96875 63.125 -56.246094 62.503906 -57.214844 C 61.804688 -58.25 60.792969 -59.042969 59.464844 -59.585938 C 57.128906 -60.546875 53.582031 -61.027344 48.824219 -61.027344 Z M 35.398438 -22.957031 C 33.984375 -22.957031 32.65625 -22.664062 31.410156 -22.078125 C 30.632812 -21.710938 30.011719 -21.292969 29.542969 -20.824219 C 29.996094 -21.277344 30.539062 -22.132812 31.175781 -23.386719 C 32.207031 -25.417969 33.171875 -27.800781 34.074219 -30.539062 C 35.046875 -33.488281 35.867188 -36.546875 36.542969 -39.714844 C 37.234375 -42.96875 37.769531 -46.199219 38.152344 -49.40625 C 38.515625 -52.480469 38.695312 -55.21875 38.695312 -57.613281 C 38.695312 -58.914062 38.648438 -59.894531 38.550781 -60.5625 C 38.542969 -60.613281 38.535156 -60.648438 38.53125 -60.664062 C 38.546875 -60.605469 38.566406 -60.527344 38.59375 -60.433594 C 38.746094 -59.894531 38.984375 -59.324219 39.3125 -58.714844 C 40.175781 -57.113281 41.441406 -55.777344 43.113281 -54.707031 C 45.070312 -53.457031 47.171875 -52.832031 49.417969 -52.832031 C 50.757812 -52.832031 52.019531 -53.101562 53.195312 -53.636719 C 53.921875 -53.964844 54.503906 -54.339844 54.945312 -54.757812 C 54.4375 -54.277344 53.839844 -53.410156 53.148438 -52.15625 C 52.144531 -50.335938 51.21875 -48.15625 50.371094 -45.617188 C 49.382812 -42.652344 48.527344 -39.59375 47.808594 -36.445312 C 47.097656 -33.324219 46.554688 -30.246094 46.183594 -27.210938 C 45.824219 -24.277344 45.648438 -21.621094 45.648438 -19.246094 C 45.648438 -17.808594 45.707031 -16.722656 45.824219 -15.980469 C 45.835938 -15.914062 45.84375 -15.867188 45.847656 -15.84375 C 45.835938 -15.894531 45.816406 -15.96875 45.789062 -16.058594 C 45.625 -16.589844 45.367188 -17.15625 45.019531 -17.757812 C 44.292969 -19.007812 43.234375 -20.089844 41.851562 -21.007812 C 39.886719 -22.308594 37.734375 -22.957031 35.398438 -22.957031 Z M 35.398438 8.226562 C 31.480469 8.226562 27.894531 7.152344 24.644531 5 C 21.972656 3.234375 19.777344 0.871094 18.058594 -2.082031 C 16.589844 -4.609375 15.578125 -7.605469 15.027344 -11.074219 C 14.652344 -13.441406 14.460938 -16.164062 14.460938 -19.246094 C 14.460938 -22.886719 14.71875 -26.804688 15.230469 -30.996094 C 15.730469 -35.089844 16.457031 -39.21875 17.40625 -43.382812 C 18.351562 -47.519531 19.476562 -51.550781 20.785156 -55.476562 C 22.234375 -59.824219 23.921875 -63.742188 25.847656 -67.230469 C 28.085938 -71.285156 30.617188 -74.652344 33.4375 -77.339844 C 35.539062 -79.339844 37.824219 -80.902344 40.292969 -82.023438 C 43.214844 -83.351562 46.253906 -84.015625 49.417969 -84.015625 C 53.25 -84.015625 56.746094 -83.003906 59.910156 -80.980469 C 62.789062 -79.140625 65.074219 -76.648438 66.769531 -73.5 C 68.050781 -71.117188 68.929688 -68.316406 69.402344 -65.09375 C 69.722656 -62.925781 69.878906 -60.433594 69.878906 -57.613281 C 69.878906 -53.992188 69.625 -50.035156 69.117188 -45.746094 C 68.628906 -41.585938 67.9375 -37.414062 67.042969 -33.222656 C 66.132812 -28.949219 65.015625 -24.800781 63.691406 -20.777344 C 62.296875 -16.546875 60.730469 -12.714844 58.988281 -9.28125 C 56.851562 -5.070312 54.386719 -1.570312 51.59375 1.226562 C 49.5 3.316406 47.203125 4.953125 44.703125 6.128906 C 41.738281 7.527344 38.636719 8.226562 35.398438 8.226562 Z M 35.398438 8.226562 "/></g></g></g><g fill="#000000" fill-opacity="1"><g transform="translate(155.064383, 228.359078)"><g><path d="M 63.316406 15.59375 L 23.25 15.59375 L 7.179688 -50.859375 L 22.332031 -54.527344 L 37.582031 -51.269531 L 23.304688 15.59375 L -19.253906 15.59375 L 3.410156 -91.023438 L 56.890625 -91.023438 L 72.109375 -23.628906 L 56.902344 -20.195312 L 41.652344 -23.441406 L 56.039062 -91.023438 L 98.90625 -91.023438 L 75.902344 15.59375 Z M 63.316406 -15.59375 L 63.316406 0 L 48.074219 -3.289062 L 64.351562 -78.722656 L 79.589844 -75.433594 L 79.589844 -59.839844 L 68.660156 -59.839844 L 68.660156 -75.433594 L 83.914062 -72.1875 L 72.152344 -16.949219 L 41.691406 -16.761719 L 29.21875 -72 L 44.429688 -75.433594 L 44.429688 -59.839844 L 16.035156 -59.839844 L 16.035156 -75.433594 L 31.289062 -72.191406 L 15.25 3.242188 L 0 0 L 0 -15.59375 L 10.691406 -15.59375 L 10.691406 0 L -4.558594 -3.253906 L 7.085938 -57.78125 L 37.488281 -58.191406 L 50.675781 -3.664062 L 35.519531 0 L 35.519531 -15.59375 Z M 63.316406 -15.59375 "/></g></g></g><g fill="#000000" fill-opacity="1"><g transform="translate(231.559514, 228.359078)"><g><path d="M 31.515625 -56.632812 C 31.5 -56.566406 31.492188 -56.523438 31.492188 -56.507812 C 31.5 -56.585938 31.511719 -56.691406 31.519531 -56.820312 C 31.554688 -57.253906 31.570312 -57.796875 31.570312 -58.445312 C 31.570312 -58.921875 31.539062 -59.378906 31.476562 -59.820312 C 31.515625 -59.554688 31.617188 -59.222656 31.792969 -58.820312 C 32.644531 -56.867188 33.984375 -55.292969 35.8125 -54.105469 C 37.605469 -52.941406 39.40625 -52.355469 41.222656 -52.355469 C 42.394531 -52.355469 43.535156 -52.652344 44.636719 -53.242188 C 45.011719 -53.441406 45.339844 -53.695312 45.628906 -54.007812 C 46.027344 -54.441406 46.328125 -54.910156 46.523438 -55.402344 C 46.730469 -55.933594 46.835938 -56.472656 46.835938 -57.019531 C 46.835938 -57.699219 46.695312 -58.449219 46.417969 -59.273438 C 45.9375 -60.695312 45.15625 -61.964844 44.070312 -63.089844 C 43.777344 -63.398438 43.480469 -63.644531 43.179688 -63.839844 C 43.101562 -63.890625 43.03125 -63.933594 42.964844 -63.964844 L 42.96875 -63.96875 C 43.855469 -63.605469 44.957031 -63.28125 46.269531 -63 C 48.738281 -62.472656 51.285156 -61.855469 53.910156 -61.15625 C 56.722656 -60.371094 59.457031 -59.394531 62.113281 -58.226562 C 65.746094 -56.625 68.992188 -54.46875 71.851562 -51.761719 C 75.023438 -48.75 77.507812 -45.039062 79.304688 -40.621094 C 81.019531 -36.402344 81.878906 -31.535156 81.878906 -26.015625 C 81.878906 -18.222656 80.183594 -11.414062 76.796875 -5.585938 C 73.5 0.0820312 68.992188 4.671875 63.273438 8.179688 C 58.203125 11.292969 52.359375 13.507812 45.738281 14.820312 C 39.945312 15.96875 33.726562 16.542969 27.085938 16.542969 C 20.308594 16.542969 14.59375 16.054688 9.941406 15.085938 C 5.34375 14.125 1.550781 13.011719 -1.441406 11.746094 C -6.066406 9.808594 -9.757812 7.273438 -12.523438 4.140625 L -17.933594 -1.996094 L -8.988281 -38.042969 L 41.535156 -38.042969 L 39.613281 -20.730469 C 39.558594 -20.257812 39.5 -19.523438 39.4375 -18.539062 C 39.378906 -17.644531 39.351562 -17.007812 39.351562 -16.632812 C 39.351562 -16.863281 39.335938 -17.042969 39.308594 -17.167969 C 39.183594 -17.703125 38.96875 -18.230469 38.667969 -18.742188 C 37.804688 -20.199219 36.683594 -21.332031 35.296875 -22.140625 C 33.820312 -23 32.390625 -23.433594 31.003906 -23.433594 C 29.789062 -23.433594 28.585938 -23.085938 27.394531 -22.394531 C 26.875 -22.09375 26.410156 -21.679688 26.003906 -21.15625 C 25.742188 -20.820312 25.546875 -20.460938 25.417969 -20.078125 C 25.320312 -19.78125 25.273438 -19.425781 25.273438 -19.007812 C 25.273438 -17.472656 25.796875 -15.957031 26.84375 -14.460938 C 27.320312 -13.78125 27.832031 -13.28125 28.375 -12.964844 C 27.9375 -13.21875 27.332031 -13.46875 26.5625 -13.714844 L 20.792969 -15.558594 L 25.539062 -30.410156 L 21.175781 -15.441406 C 18.890625 -16.109375 16.511719 -16.910156 14.035156 -17.84375 C 10.34375 -19.234375 6.96875 -21.183594 3.90625 -23.6875 C 0.535156 -26.449219 -2.21875 -29.847656 -4.347656 -33.890625 C -6.695312 -38.34375 -7.871094 -43.558594 -7.871094 -49.535156 C -7.871094 -58.058594 -5.550781 -65.425781 -0.910156 -71.640625 C 3.023438 -76.902344 7.945312 -81.144531 13.855469 -84.371094 C 19.1875 -87.277344 24.980469 -89.339844 31.230469 -90.558594 C 36.886719 -91.660156 42.316406 -92.214844 47.515625 -92.214844 C 54.714844 -92.214844 61.101562 -91.304688 66.675781 -89.480469 C 72.605469 -87.542969 77.378906 -85.046875 80.992188 -81.992188 L 88.523438 -75.613281 L 78.507812 -37.984375 L 27.785156 -37.984375 Z M 62.09375 -50.515625 L 46.804688 -53.574219 L 46.804688 -69.167969 L 66.523438 -69.167969 L 66.523438 -53.574219 L 51.457031 -57.585938 L 55.851562 -74.097656 L 70.917969 -70.085938 L 60.847656 -58.183594 C 60.757812 -58.261719 60.507812 -58.402344 60.09375 -58.609375 C 59.277344 -59.019531 58.242188 -59.429688 56.988281 -59.839844 C 54.5625 -60.632812 51.40625 -61.027344 47.515625 -61.027344 C 44.324219 -61.027344 40.882812 -60.667969 37.195312 -59.949219 C 34.101562 -59.347656 31.296875 -58.363281 28.789062 -56.992188 C 26.859375 -55.941406 25.289062 -54.601562 24.074219 -52.972656 C 23.566406 -52.296875 23.3125 -51.152344 23.3125 -49.535156 C 23.3125 -48.890625 23.351562 -48.390625 23.425781 -48.03125 L 23.421875 -48.015625 C 23.378906 -48.140625 23.316406 -48.28125 23.234375 -48.433594 C 23.402344 -48.117188 23.542969 -47.914062 23.652344 -47.824219 C 24.078125 -47.476562 24.542969 -47.207031 25.046875 -47.019531 C 26.769531 -46.367188 28.390625 -45.820312 29.90625 -45.378906 L 30.097656 -45.324219 L 36.042969 -43.421875 C 38.992188 -42.480469 41.675781 -41.308594 44.089844 -39.898438 C 47.484375 -37.917969 50.25 -35.398438 52.390625 -32.34375 C 55.101562 -28.472656 56.457031 -24.027344 56.457031 -19.007812 C 56.457031 -16.054688 55.972656 -13.121094 55.003906 -10.214844 C 54.003906 -7.21875 52.542969 -4.484375 50.617188 -2.007812 C 48.546875 0.652344 46.023438 2.847656 43.050781 4.574219 C 39.402344 6.691406 35.386719 7.75 31.003906 7.75 C 26.769531 7.75 22.960938 6.765625 19.585938 4.796875 C 16.296875 2.878906 13.710938 0.320312 11.820312 -2.878906 C 10.488281 -5.132812 9.519531 -7.558594 8.921875 -10.15625 C 8.417969 -12.339844 8.167969 -14.496094 8.167969 -16.632812 C 8.167969 -17.679688 8.21875 -18.984375 8.316406 -20.546875 C 8.414062 -22.011719 8.511719 -23.222656 8.617188 -24.171875 L 24.113281 -22.453125 L 24.113281 -6.859375 L 3.207031 -6.859375 L 3.207031 -22.453125 L 18.339844 -18.695312 L 14.300781 -2.421875 L -0.832031 -6.175781 L 10.859375 -16.492188 C 10.519531 -16.878906 10.214844 -17.160156 9.941406 -17.335938 C 10.0625 -17.257812 10.320312 -17.136719 10.707031 -16.972656 C 11.832031 -16.496094 13.703125 -15.984375 16.3125 -15.441406 C 18.867188 -14.90625 22.457031 -14.640625 27.085938 -14.640625 C 31.6875 -14.640625 35.882812 -15.015625 39.671875 -15.769531 C 42.636719 -16.355469 45.066406 -17.234375 46.964844 -18.398438 C 48.214844 -19.164062 49.175781 -20.121094 49.835938 -21.261719 C 50.410156 -22.242188 50.695312 -23.828125 50.695312 -26.015625 C 50.695312 -26.914062 50.644531 -27.675781 50.542969 -28.300781 C 50.492188 -28.597656 50.453125 -28.789062 50.417969 -28.871094 C 50.324219 -29.101562 50.246094 -29.265625 50.175781 -29.371094 C 50.214844 -29.3125 50.285156 -29.234375 50.386719 -29.136719 C 50.15625 -29.359375 49.878906 -29.539062 49.554688 -29.679688 C 48.246094 -30.257812 47.023438 -30.703125 45.875 -31.027344 C 43.75 -31.59375 41.703125 -32.085938 39.734375 -32.507812 C 36.617188 -33.175781 33.757812 -34.042969 31.160156 -35.105469 C 27.390625 -36.648438 24.210938 -38.761719 21.621094 -41.445312 C 19.46875 -43.679688 17.882812 -46.300781 16.871094 -49.300781 C 16.058594 -51.710938 15.652344 -54.285156 15.652344 -57.019531 C 15.652344 -60.417969 16.269531 -63.691406 17.507812 -66.832031 C 18.730469 -69.941406 20.457031 -72.703125 22.679688 -75.121094 C 24.785156 -77.410156 27.214844 -79.289062 29.964844 -80.757812 C 33.445312 -82.613281 37.195312 -83.542969 41.222656 -83.542969 C 45.570312 -83.542969 49.429688 -82.445312 52.808594 -80.25 C 56.21875 -78.03125 58.746094 -75.035156 60.390625 -71.253906 C 61.355469 -69.035156 62.015625 -66.644531 62.367188 -64.082031 C 62.625 -62.226562 62.753906 -60.347656 62.753906 -58.445312 C 62.753906 -55.359375 62.53125 -52.714844 62.09375 -50.515625 Z M 62.09375 -50.515625 "/></g></g></g><g fill="#004aad" fill-opacity="1"><g transform="translate(73.699218, 228.359078)"><g><path d="M 48.828125 -76.625 C 55.640625 -76.625 61.160156 -75.75 65.390625 -74 C 69.628906 -72.257812 72.976562 -69.570312 75.4375 -65.9375 C 77.019531 -63.476562 78.242188 -60.703125 79.109375 -57.609375 C 79.984375 -54.523438 80.421875 -50.960938 80.421875 -46.921875 C 80.421875 -43.441406 80.101562 -39.957031 79.46875 -36.46875 C 78.84375 -32.988281 77.953125 -29.644531 76.796875 -26.4375 C 75.648438 -23.226562 74.265625 -20.21875 72.640625 -17.40625 C 71.015625 -14.59375 69.210938 -12.117188 67.234375 -9.984375 C 62.484375 -4.753906 56.425781 -1.425781 49.0625 0 C 51.125 2.0625 53.5 3.742188 56.1875 5.046875 C 58.882812 6.359375 61.65625 7.328125 64.5 7.953125 C 60.9375 10.566406 57.769531 12.90625 55 14.96875 C 53.8125 15.84375 52.644531 16.691406 51.5 17.515625 C 50.351562 18.347656 49.34375 19.101562 48.46875 19.78125 C 47.59375 20.457031 46.859375 20.972656 46.265625 21.328125 C 45.671875 21.679688 45.375 21.859375 45.375 21.859375 C 42.84375 20.273438 40.644531 18.53125 38.78125 16.625 C 36.925781 14.726562 35.34375 12.804688 34.03125 10.859375 C 32.726562 8.921875 31.660156 7.0625 30.828125 5.28125 C 29.992188 3.5 29.34375 1.9375 28.875 0.59375 C 24.195312 0.195312 20.332031 -0.710938 17.28125 -2.140625 C 14.238281 -3.566406 11.722656 -5.546875 9.734375 -8.078125 C 7.992188 -10.296875 6.628906 -13.109375 5.640625 -16.515625 C 4.648438 -19.921875 4.15625 -24.195312 4.15625 -29.34375 C 4.15625 -38.132812 5.71875 -45.992188 8.84375 -52.921875 C 11.976562 -59.847656 16.4375 -65.332031 22.21875 -69.375 C 25.695312 -71.832031 29.570312 -73.65625 33.84375 -74.84375 C 38.125 -76.03125 43.117188 -76.625 48.828125 -76.625 Z M 35.40625 -7.359375 C 37.226562 -7.359375 38.945312 -8.171875 40.5625 -9.796875 C 42.1875 -11.421875 43.691406 -13.597656 45.078125 -16.328125 C 46.460938 -19.066406 47.726562 -22.175781 48.875 -25.65625 C 50.03125 -29.144531 51.003906 -32.75 51.796875 -36.46875 C 52.585938 -40.1875 53.203125 -43.890625 53.640625 -47.578125 C 54.078125 -51.265625 54.296875 -54.609375 54.296875 -57.609375 C 54.296875 -61.734375 53.878906 -64.566406 53.046875 -66.109375 C 52.210938 -67.648438 51.003906 -68.421875 49.421875 -68.421875 C 47.597656 -68.421875 45.851562 -67.628906 44.1875 -66.046875 C 42.53125 -64.460938 40.96875 -62.34375 39.5 -59.6875 C 38.03125 -57.039062 36.722656 -53.992188 35.578125 -50.546875 C 34.429688 -47.097656 33.441406 -43.550781 32.609375 -39.90625 C 31.773438 -36.269531 31.140625 -32.671875 30.703125 -29.109375 C 30.273438 -25.546875 30.0625 -22.257812 30.0625 -19.25 C 30.0625 -14.726562 30.554688 -11.613281 31.546875 -9.90625 C 32.535156 -8.207031 33.820312 -7.359375 35.40625 -7.359375 Z M 35.40625 -7.359375 "/></g></g></g><g fill="#004aad" fill-opacity="1"><g transform="translate(155.064383, 228.359078)"><g><path d="M 63.3125 0 L 35.515625 0 L 22.328125 -54.53125 L 10.6875 0 L 0 0 L 16.03125 -75.4375 L 44.4375 -75.4375 L 56.90625 -20.203125 L 68.671875 -75.4375 L 79.59375 -75.4375 Z M 63.3125 0 "/></g></g></g><g fill="#004aad" fill-opacity="1"><g transform="translate(231.559514, 228.359078)"><g><path d="M 46.8125 -53.578125 C 47.039062 -54.765625 47.15625 -56.390625 47.15625 -58.453125 C 47.15625 -59.640625 47.078125 -60.804688 46.921875 -61.953125 C 46.765625 -63.097656 46.488281 -64.125 46.09375 -65.03125 C 45.695312 -65.945312 45.101562 -66.660156 44.3125 -67.171875 C 43.519531 -67.691406 42.488281 -67.953125 41.21875 -67.953125 C 39.789062 -67.953125 38.484375 -67.632812 37.296875 -67 C 36.109375 -66.363281 35.054688 -65.550781 34.140625 -64.5625 C 33.234375 -63.570312 32.523438 -62.421875 32.015625 -61.109375 C 31.503906 -59.804688 31.25 -58.441406 31.25 -57.015625 C 31.25 -54.960938 31.78125 -53.378906 32.84375 -52.265625 C 33.914062 -51.160156 35.320312 -50.25 37.0625 -49.53125 C 38.800781 -48.820312 40.78125 -48.226562 43 -47.75 C 45.21875 -47.28125 47.515625 -46.726562 49.890625 -46.09375 C 51.867188 -45.539062 53.847656 -44.828125 55.828125 -43.953125 C 57.804688 -43.078125 59.566406 -41.90625 61.109375 -40.4375 C 62.660156 -38.976562 63.910156 -37.082031 64.859375 -34.75 C 65.804688 -32.414062 66.28125 -29.503906 66.28125 -26.015625 C 66.28125 -21.023438 65.289062 -16.828125 63.3125 -13.421875 C 61.332031 -10.015625 58.597656 -7.242188 55.109375 -5.109375 C 51.628906 -2.972656 47.492188 -1.425781 42.703125 -0.46875 C 37.910156 0.476562 32.703125 0.953125 27.078125 0.953125 C 21.378906 0.953125 16.726562 0.578125 13.125 -0.171875 C 9.519531 -0.929688 6.691406 -1.742188 4.640625 -2.609375 C 2.179688 -3.640625 0.359375 -4.828125 -0.828125 -6.171875 L 3.203125 -22.453125 L 24.109375 -22.453125 C 24.035156 -21.742188 23.957031 -20.773438 23.875 -19.546875 C 23.800781 -18.316406 23.765625 -17.34375 23.765625 -16.625 C 23.765625 -15.675781 23.878906 -14.6875 24.109375 -13.65625 C 24.347656 -12.632812 24.722656 -11.6875 25.234375 -10.8125 C 25.753906 -9.9375 26.488281 -9.222656 27.4375 -8.671875 C 28.394531 -8.117188 29.582031 -7.84375 31 -7.84375 C 32.582031 -7.84375 33.988281 -8.195312 35.21875 -8.90625 C 36.445312 -9.625 37.476562 -10.515625 38.3125 -11.578125 C 39.144531 -12.648438 39.773438 -13.835938 40.203125 -15.140625 C 40.640625 -16.453125 40.859375 -17.738281 40.859375 -19 C 40.859375 -20.75 40.441406 -22.21875 39.609375 -23.40625 C 38.785156 -24.59375 37.660156 -25.597656 36.234375 -26.421875 C 34.804688 -27.253906 33.160156 -27.96875 31.296875 -28.5625 C 29.441406 -29.164062 27.523438 -29.78125 25.546875 -30.40625 C 23.640625 -30.96875 21.632812 -31.644531 19.53125 -32.4375 C 17.4375 -33.226562 15.519531 -34.332031 13.78125 -35.75 C 12.039062 -37.175781 10.59375 -38.976562 9.4375 -41.15625 C 8.289062 -43.34375 7.71875 -46.132812 7.71875 -49.53125 C 7.71875 -54.601562 9.003906 -58.863281 11.578125 -62.3125 C 14.148438 -65.757812 17.394531 -68.550781 21.3125 -70.6875 C 25.238281 -72.820312 29.535156 -74.34375 34.203125 -75.25 C 38.878906 -76.164062 43.316406 -76.625 47.515625 -76.625 C 53.054688 -76.625 57.828125 -75.96875 61.828125 -74.65625 C 65.828125 -73.351562 68.859375 -71.832031 70.921875 -70.09375 L 66.53125 -53.578125 Z M 46.8125 -53.578125 "/></g></g></g></svg>